<svg width="933" height="928" viewBox="0 0 933 928" fill="none" xmlns="http://www.w3.org/2000/svg">
<path d="M197.655 593.789C187.612 580.774 179.791 564.147 178.155 543.703C177.718 538.234 177.629 532.548 177.844 526.703C143.595 535.503 137.553 577.201 138.813 596.95C161.375 599.164 182.387 597.208 197.655 593.789Z" fill="black"/>
<path d="M9.9973 433.203C39.7214 422.369 110.368 409.603 155.162 445.203C155.287 429.716 154.717 417.276 153.569 407.203C118.3 383.502 64.0967 382.781 41.4036 385.383C27.1722 396.939 15.3104 412.587 9.9973 433.203Z" fill="black"/>
<path d="M160.444 489.703C71.4753 458.503 26.1811 484.703 14.6552 501.703C21.1031 521.444 30.3511 537.397 41.4036 550.203C54.1364 533.703 98.0573 502.203 171.879 508.203C167.969 503.255 163.736 496.873 160.444 489.703Z" fill="black"/>
<path fill-rule="evenodd" clip-rule="evenodd" d="M138.813 278.203C174.887 304.703 255.899 348.103 291.346 309.703C335.655 261.703 329.655 245.203 366.155 245.203C395.355 245.203 432.655 283.869 447.655 303.203C459.655 315.536 500.655 327.803 568.655 278.203C529.655 256.203 522.155 260.703 497.155 236.703C472.155 212.703 432.155 189.203 407.155 222.703C373.97 214.203 373.155 214.203 337.655 222.703C315.489 204.203 313.155 198.203 278.155 207.703C243.155 217.203 172.97 278.203 138.813 278.203ZM281.155 236.703C264.355 236.703 258.489 254.703 257.655 263.703C258.655 268.536 260.655 284.703 278.155 284.703C293.09 284.703 296.322 272.869 296.655 263.703C298.489 254.703 297.955 236.703 281.155 236.703ZM454.155 236.703C442.155 236.703 438.822 249.703 438.655 256.203C438.655 263.536 440.709 284.703 454.155 284.703C469.155 284.703 474.655 278.203 474.655 256.203C474.655 256.203 474.655 236.703 454.155 236.703Z" fill="black"/>
<path d="M243.155 628.203C246.322 617.369 258.355 597.003 281.155 602.203C286.723 603.473 289.887 605.792 291.346 608.703M243.155 628.203C243.155 635.703 268.155 642.703 271.655 642.703C273.328 642.703 287.655 642.703 287.655 626.117M243.155 628.203C231.333 623.868 212.173 612.603 197.655 593.789M462.655 615.203C527.655 573.203 505.155 535.203 490.655 501.703C490.655 421.303 466.322 365.536 454.155 347.703C483.822 339.036 550.255 318.003 578.655 303.203C614.155 284.703 628.655 258.703 617.655 256.203C606.655 253.703 533.155 190.203 522.155 132.703C537.155 75.2027 514.655 13.2027 490.655 7.7027C466.655 2.2027 434.655 29.7027 402.655 65.2027C355.455 49.2027 306.322 63.536 287.655 72.7027C272.822 52.536 234.055 13.5027 197.655 18.7027C161.255 23.9027 169.489 101.203 178.155 139.203C176.489 145.036 167.255 166.203 143.655 204.203C114.155 251.703 76.1552 245.203 76.1552 267.203C89.1552 291.203 150.155 318.203 234.655 359.203C216.627 385.815 184.229 456.645 178.582 515.703M462.655 615.203C457.455 599.203 438.647 604.203 429.892 608.703M462.655 615.203C469.155 635.203 457.13 641.036 429.892 634.62M291.346 608.703C293.787 613.57 291.464 620.089 287.655 626.117M291.346 608.703C293.625 606.018 297.726 602.736 302.155 602.338M287.655 626.117C288.886 631.645 293.508 642.703 302.155 642.703C308.324 642.703 313.803 636.351 315.697 628.203M302.155 602.338C305.7 602.019 309.455 603.546 312.655 608.703C313.951 610.79 314.88 612.981 315.489 615.203M302.155 602.338C295.155 582.126 281.155 536.503 281.155 515.703M315.489 615.203C321.044 610.914 334.355 602.338 343.155 602.338M315.489 615.203C316.695 619.606 316.644 624.129 315.697 628.203M343.155 602.338C354.155 602.338 349.655 642.703 343.155 642.703M343.155 602.338C357.438 599.027 368.091 602.642 373.97 608.703M343.155 642.703C336.655 642.703 315.298 630.289 315.697 628.203M343.155 642.703C351.989 642.203 371.155 638.603 377.155 628.203M377.155 628.203C380.754 621.965 379.393 614.293 373.97 608.703M377.155 628.203C380.34 630.289 402.655 642.703 407.155 642.703M373.97 608.703C383.532 605.369 403.555 599.703 407.155 603.703M373.97 608.703C373.97 581.503 368.76 526.036 366.155 501.703M407.155 603.703C411.655 608.703 411.655 642.703 407.155 642.703M407.155 603.703C413.182 603.703 422.85 604.897 429.892 608.703M407.155 642.703C413.313 641.755 422.906 639.171 429.892 634.62M429.892 608.703C434.731 611.317 438.329 615.164 438.655 620.703C439 626.573 435.198 631.163 429.892 634.62M429.892 608.703C440.882 587.969 446.313 533.064 447.655 508.203M197.655 593.789C187.612 580.774 179.791 564.147 178.155 543.703C177.718 538.234 177.629 532.548 177.844 526.703M197.655 593.789C182.387 597.208 161.375 599.164 138.813 596.95M14.6552 501.703C26.1811 484.703 71.4753 458.503 160.444 489.703M14.6552 501.703C21.1031 521.444 30.3511 537.397 41.4036 550.203M14.6552 501.703C5.73993 474.407 5.20777 451.787 9.9973 433.203M178.582 515.703C176.69 513.884 174.349 511.33 171.879 508.203M178.582 515.703C178.227 519.421 177.977 523.092 177.844 526.703M160.444 489.703C157.048 482.305 154.655 474.069 154.655 465.703C154.945 458.333 155.111 451.515 155.162 445.203M160.444 489.703C163.736 496.873 167.969 503.255 171.879 508.203M41.4036 550.203C54.1364 533.703 98.0573 502.203 171.879 508.203M41.4036 550.203C68.0374 581.061 105.15 593.647 138.813 596.95M138.813 596.95C137.553 577.201 143.595 535.503 177.844 526.703M9.9973 433.203C39.7214 422.369 110.368 409.603 155.162 445.203M9.9973 433.203C15.3104 412.587 27.1722 396.939 41.4036 385.383M155.162 445.203C155.287 429.716 154.717 417.276 153.569 407.203M41.4036 385.383C72.6227 360.034 115.245 354.382 125.155 359.203C138.365 365.629 149.535 371.8 153.569 407.203M41.4036 385.383C64.0967 382.781 118.3 383.502 153.569 407.203M337.655 329.203C344.532 337.869 361.422 351.703 373.97 337.703C387.655 347.703 394.155 348.703 407.155 329.203M210.655 126.203C201.822 97.036 189.455 40.4027 210.655 47.2027C231.855 54.0027 252.822 76.7027 260.655 87.2027L210.655 126.203ZM449.655 81.7027C460.155 66.3694 482.855 38.0027 489.655 47.2027C498.155 58.7027 499.155 116.703 489.655 111.203C480.155 105.703 449.655 88.2027 449.655 81.7027ZM138.813 278.203C174.887 304.703 255.899 348.103 291.346 309.703C335.655 261.703 329.655 245.203 366.155 245.203C395.355 245.203 432.655 283.869 447.655 303.203C459.655 315.536 500.655 327.803 568.655 278.203C529.655 256.203 522.155 260.703 497.155 236.703C472.155 212.703 432.155 189.203 407.155 222.703C373.97 214.203 373.155 214.203 337.655 222.703C315.489 204.203 313.155 198.203 278.155 207.703C243.155 217.203 172.97 278.203 138.813 278.203ZM257.655 263.703C258.489 254.703 264.355 236.703 281.155 236.703C297.955 236.703 298.489 254.703 296.655 263.703C296.322 272.869 293.09 284.703 278.155 284.703C260.655 284.703 258.655 268.536 257.655 263.703ZM438.655 256.203C438.822 249.703 442.155 236.703 454.155 236.703C474.655 236.703 474.655 256.203 474.655 256.203C474.655 278.203 469.155 284.703 454.155 284.703C440.709 284.703 438.655 263.536 438.655 256.203ZM354.155 303.203C353.322 297.036 356.755 284.703 377.155 284.703C397.555 284.703 402.655 297.036 402.655 303.203C399.699 308.869 389.822 320.203 373.97 320.203C358.118 320.203 354.155 308.869 354.155 303.203Z" stroke="black" stroke-width="14"/>
<path d="M536 571.5V696L643 635.5V510L536 571.5Z" fill="black" stroke="black" stroke-width="10"/>
<path d="M426.845 641.297L531 704.5V569.5L648 501.5L537 448L421 510L426.845 641.297Z" fill="url(#paint0_linear_1_15)"/>
<g clip-path="url(#clip0_1_15)">
<path d="M637.434 537C637.434 539.97 637.434 542.94 637.434 546C636.084 546.748 636.084 546.748 634.707 547.512C625.885 552.427 617.16 557.491 608.475 562.644C600.141 567.588 591.782 572.491 583.417 577.382C576.478 581.44 569.552 585.517 562.652 589.641C561.396 590.39 560.14 591.14 558.884 591.889C556.498 593.313 554.116 594.743 551.736 596.175C550.673 596.81 549.61 597.444 548.516 598.098C547.58 598.66 546.643 599.222 545.679 599.801C543.434 601 543.434 601 541.434 601C541.434 598.03 541.434 595.06 541.434 592C542.426 591.428 542.426 591.428 543.439 590.845C560.485 581.029 577.494 571.153 594.473 561.222C605.419 554.821 616.372 548.434 627.371 542.125C628.722 541.347 628.722 541.347 630.1 540.554C630.921 540.085 631.741 539.616 632.586 539.133C633.308 538.719 634.03 538.306 634.773 537.879C636.434 537 636.434 537 637.434 537Z" fill="white"/>
<path d="M636.434 565C637.046 572.226 637.046 572.226 634.578 575.344C630.461 579.13 625.561 581.908 620.809 584.812C619.378 585.709 619.378 585.709 617.918 586.623C610.815 591 610.815 591 607.434 591C607.104 591.66 606.774 592.32 606.434 593C604.549 594.158 602.623 595.249 600.684 596.312C594.515 599.753 588.49 603.39 582.496 607.125C580.706 608.238 578.915 609.352 577.125 610.465C575.745 611.323 575.745 611.323 574.336 612.199C569.212 615.378 564.076 618.538 558.934 621.688C557.96 622.288 556.987 622.888 555.985 623.506C555.071 624.065 554.157 624.624 553.215 625.199C552.009 625.939 552.009 625.939 550.779 626.694C548.39 628.025 545.992 629.041 543.434 630C543.047 626.973 542.804 624.928 543.434 622C545.515 619.568 548.154 618.222 550.934 616.688C552.166 615.959 552.166 615.959 553.423 615.215C555.316 614.099 557.217 612.997 559.124 611.905C562.856 609.757 566.559 607.561 570.258 605.355C571.641 604.531 573.024 603.707 574.407 602.883C575.101 602.47 575.794 602.057 576.509 601.631C578.62 600.375 580.734 599.124 582.849 597.875C591.028 593.041 599.156 588.147 607.18 583.059C610.494 580.962 613.835 578.916 617.184 576.875C622.615 573.548 627.903 570.053 633.168 566.469C635.434 565 635.434 565 636.434 565Z" fill="white"/>
<path d="M623.434 530C624.317 533.263 624.445 535.751 623.434 539C620.247 541.936 616.51 543.814 612.693 545.806C609.256 547.622 605.89 549.559 602.511 551.482C599.55 553.166 596.58 554.835 593.609 556.504C587.474 559.964 581.387 563.503 575.309 567.062C564.395 573.454 553.429 579.749 542.434 586C540.434 584 540.434 584 540 580.598C540.434 577 540.434 577 542.398 575.059C543.379 574.524 544.36 573.989 545.371 573.438C545.938 573.118 546.504 572.798 547.088 572.469C548.418 571.723 549.755 570.989 551.097 570.265C553.707 568.852 556.293 567.399 558.879 565.941C563.089 563.57 567.305 561.213 571.527 558.863C578.713 554.855 585.857 550.777 592.996 546.688C609.223 537.399 609.223 537.399 616.121 533.5C617.092 532.948 617.092 532.948 618.082 532.385C622.316 530 622.316 530 623.434 530Z" fill="white"/>
<path d="M622.434 587C623.086 590.196 623.188 592.813 622.434 596C620.594 597.754 620.594 597.754 618.121 599.348C617.211 599.944 616.3 600.541 615.362 601.155C614.396 601.764 613.429 602.373 612.434 603C611.505 603.6 610.576 604.201 609.619 604.82C606.696 606.695 603.756 608.54 600.809 610.375C599.227 611.363 599.227 611.363 597.613 612.37C591.247 616.321 584.826 620.111 578.255 623.709C572.061 627.132 566.111 630.92 560.165 634.753C555.03 638.05 549.803 641.099 544.434 644C543.89 640.856 543.728 638.128 544.434 635C546.899 632.34 549.917 630.89 553.121 629.25C554.961 628.231 556.799 627.211 558.637 626.188C560.071 625.408 560.071 625.408 561.533 624.613C566.249 621.99 570.802 619.118 575.371 616.25C577.116 615.167 578.86 614.085 580.605 613.004C583.599 611.144 586.589 609.277 589.574 607.402C590.183 607.022 590.791 606.642 591.418 606.251C592.992 605.268 594.562 604.281 596.133 603.293C598.434 602 598.434 602 600.434 602C600.434 601.34 600.434 600.68 600.434 600C602.345 598.58 602.345 598.58 604.992 596.961C606.407 596.091 606.407 596.091 607.85 595.203C608.847 594.6 609.844 593.997 610.871 593.375C611.864 592.764 612.858 592.153 613.881 591.523C621.277 587 621.277 587 622.434 587Z" fill="white"/>
<path d="M634.434 593C634.953 596.134 635.106 598.88 634.434 602C632.094 604.655 629.21 606.142 626.121 607.812C624.381 608.827 622.641 609.843 620.902 610.859C620.001 611.372 619.1 611.884 618.172 612.412C613.731 614.987 609.436 617.784 605.121 620.562C600.326 623.636 595.595 626.563 590.434 629C590.007 625.902 589.867 623.087 590.434 620C592.854 617.678 594.567 616.436 597.434 614.875C598.977 613.959 600.52 613.042 602.063 612.125C602.912 611.635 603.762 611.145 604.637 610.641C609.962 607.516 615.151 604.17 620.371 600.875C622.441 599.578 624.513 598.284 626.586 596.992C627.473 596.439 628.36 595.886 629.273 595.316C633.075 593 633.075 593 634.434 593Z" fill="white"/>
<path d="M576.434 587C577.401 590.628 577.575 593.395 576.434 597C572.186 600.843 567.289 603.342 562.246 606C560.889 606.753 559.535 607.51 558.182 608.27C553.043 611.127 547.954 613.93 542.434 616C541.549 612.735 541.409 610.248 542.434 607C545.671 604.109 549.399 602.218 553.215 600.208C557.632 597.802 561.89 595.118 566.184 592.5C567.926 591.445 569.671 590.392 571.418 589.344C572.168 588.892 572.918 588.44 573.69 587.975C575.434 587 575.434 587 576.434 587Z" fill="white"/>
<path d="M577.434 642C578.255 645.247 578.393 647.77 577.434 651C573.873 654.477 569.659 656.842 565.371 659.312C564.224 660.005 563.079 660.701 561.936 661.4C558.788 663.304 555.62 665.162 552.434 667C551.651 667.452 550.869 667.903 550.063 668.369C548.523 669.252 546.979 670.127 545.434 671C544.785 667.821 544.666 665.168 545.434 662C547.732 659.437 550.556 657.881 553.514 656.158C555.882 654.73 558.177 653.207 560.481 651.676C568.006 646.687 568.006 646.687 571.215 644.598C571.979 644.098 572.742 643.598 573.529 643.082C575.434 642 575.434 642 577.434 642Z" fill="white"/>
<path d="M577.434 629C578.123 632.2 578.278 634.818 577.434 638C574.37 641.129 570.731 643.114 566.934 645.25C565.951 645.835 564.969 646.42 563.957 647.023C562.029 648.17 560.093 649.302 558.148 650.42C555.669 651.863 553.252 653.371 550.84 654.922C547.434 657 547.434 657 545.434 657C545.104 654.36 544.774 651.72 544.434 649C547.811 646.858 551.193 644.722 554.578 642.591C555.729 641.865 556.879 641.138 558.029 640.409C559.679 639.362 561.334 638.322 562.988 637.281C563.983 636.653 564.978 636.024 566.003 635.377C568.434 634 568.434 634 570.434 634C570.434 633.34 570.434 632.68 570.434 632C574.818 629 574.818 629 577.434 629Z" fill="white"/>
<path d="M578.434 655C579.029 658.243 579.333 659.906 578.434 663C575.353 666.014 571.727 668.003 567.996 670.125C566.039 671.294 564.082 672.463 562.125 673.633C560.694 674.469 560.694 674.469 559.235 675.321C555.766 677.4 552.425 679.638 549.094 681.929C547.434 683 547.434 683 546.434 683C545.69 679.781 545.545 677.202 546.434 674C549.7 670.694 553.558 668.513 557.559 666.188C558.605 665.546 559.652 664.905 560.73 664.244C562.743 663.012 564.764 661.794 566.794 660.591C568.921 659.309 570.959 657.98 572.988 656.551C575.434 655 575.434 655 578.434 655Z" fill="white"/>
<path d="M636.434 551C638.087 554.306 637.547 557.596 636.434 561C634.208 562.991 632.596 564.144 630.027 565.5C629.387 565.866 628.748 566.232 628.088 566.609C626.05 567.766 623.993 568.883 621.934 570C620.548 570.78 619.164 571.563 617.781 572.348C607.756 578 607.756 578 606.434 578C605.611 574.751 605.453 572.228 606.434 569C610.049 565.644 614.296 563.437 618.621 561.125C619.785 560.472 620.947 559.816 622.107 559.156C624.253 557.947 626.407 556.752 628.571 555.575C631.233 554.11 633.84 552.581 636.434 551Z" fill="white"/>
<path d="M634.434 606C634.925 612.384 634.925 612.384 632.894 614.93C629.722 617.598 626.345 619.724 622.809 621.875C622.101 622.311 621.393 622.747 620.664 623.197C615.28 626.508 609.874 629.783 604.434 633C603.95 629.879 603.797 627.107 604.434 624C606.624 621.431 609.309 619.988 612.246 618.375C613.018 617.917 613.789 617.459 614.584 616.987C616.133 616.068 617.689 615.161 619.253 614.266C622.201 612.554 625.026 610.69 627.871 608.812C632.185 606 632.185 606 634.434 606Z" fill="white"/>
<path d="M633.434 618C634.128 621.202 634.282 623.816 633.434 627C630.349 630.15 626.691 632.157 622.871 634.312C621.88 634.906 620.89 635.5 619.869 636.111C617.076 637.776 614.262 639.396 611.434 641C610.029 641.806 608.624 642.612 607.219 643.418C606.3 643.94 605.381 644.462 604.434 645C603.791 641.728 603.518 640.129 604.434 637C607.126 634.2 610.264 632.222 613.553 630.177C615.697 628.835 617.805 627.446 619.914 626.051C622.935 624.062 625.961 622.081 629.004 620.125C629.641 619.715 630.278 619.305 630.934 618.883C632.434 618 632.434 618 633.434 618Z" fill="white"/>
</g>
<defs>
<linearGradient id="paint0_linear_1_15" x1="587.5" y1="476" x2="430.5" y2="636" gradientUnits="userSpaceOnUse">
<stop stop-color="#9D41FF"/>
<stop offset="0.5" stop-color="#FF286C"/>
<stop offset="1" stop-color="#FF8619"/>
</linearGradient>
<clipPath id="clip0_1_15">
<rect width="382" height="464" fill="white" transform="translate(551 464)"/>
</clipPath>
</defs>
</svg>
