<svg width="15" height="15" viewBox="0 0 15 15" fill="none" xmlns="http://www.w3.org/2000/svg">
<path d="M5.31009 1.82214C4.86142 1.68308 5.12314 2.84122 5.31009 3.43767L6.36827 2.64013C6.20249 2.42541 5.75876 1.9612 5.31009 1.82214Z" fill="#CED0D6"/>
<path d="M11.2148 1.82214C11.0708 1.634 10.5904 2.21409 10.3682 2.52766C10.3682 2.66058 11.0137 3.01845 11.2148 3.13093C11.4158 3.2434 11.3946 2.05731 11.2148 1.82214Z" fill="#CED0D6"/>
<path d="M5.03496 12.9997C4.82242 12.7336 4.65688 12.3936 4.62227 11.9755C4.61301 11.8636 4.61113 11.7474 4.61569 11.6278C3.89086 11.8078 3.76297 12.6605 3.78964 13.0644C4.26714 13.1097 4.71184 13.0696 5.03496 12.9997Z" fill="#CED0D6"/>
<path d="M1.06343 9.71576C1.6925 9.49423 3.18765 9.23315 4.13566 9.96116C4.1383 9.64447 4.12623 9.39007 4.10194 9.18407C3.35552 8.69938 2.20838 8.68465 1.72811 8.73787C1.42692 8.97418 1.17588 9.29419 1.06343 9.71576Z" fill="#CED0D6"/>
<path d="M4.24744 10.8712C2.36453 10.2331 1.40594 10.7689 1.16201 11.1166C1.29847 11.5203 1.49419 11.8465 1.72811 12.1084C1.99758 11.771 2.9271 11.1268 4.48943 11.2495C4.4067 11.1483 4.3171 11.0178 4.24744 10.8712Z" fill="#CED0D6"/>
<path fill-rule="evenodd" clip-rule="evenodd" d="M3.78964 6.54604C4.55311 7.08796 6.26762 7.97549 7.01781 7.19021C7.95555 6.20862 7.82857 5.8712 8.60104 5.8712C9.21902 5.8712 10.0084 6.66193 10.3259 7.05729C10.5798 7.3095 11.4476 7.56035 12.8867 6.54604C12.0613 6.09615 11.9026 6.18817 11.3735 5.69738C10.8444 5.20658 9.99784 4.72601 9.46875 5.41108C8.76643 5.23726 8.74918 5.23726 7.99787 5.41108C7.52875 5.03276 7.47937 4.91006 6.73864 5.10433C5.99791 5.29861 4.51253 6.54604 3.78964 6.54604ZM6.80213 5.69738C6.44658 5.69738 6.32242 6.06547 6.30478 6.24952C6.32594 6.34836 6.36827 6.67897 6.73864 6.67897C7.05471 6.67897 7.12311 6.43698 7.13016 6.24952C7.16896 6.06547 7.15768 5.69738 6.80213 5.69738ZM10.4634 5.69738C10.2095 5.69738 10.1389 5.96322 10.1354 6.09615C10.1354 6.24611 10.1789 6.67897 10.4634 6.67897C10.7809 6.67897 10.8973 6.54604 10.8973 6.09615C10.8973 6.09615 10.8973 5.69738 10.4634 5.69738Z" fill="#CED0D6"/>
<path d="M5.99791 13.7035C6.06493 13.4819 6.3196 13.0654 6.80213 13.1718C6.91997 13.1978 6.98691 13.2452 7.01781 13.3047M5.99791 13.7035C5.99791 13.8569 6.527 14 6.60107 14C6.63648 14 6.93969 14 6.93969 13.6608M5.99791 13.7035C5.74771 13.6148 5.34222 13.3845 5.03496 12.9997M10.6433 13.4376C12.019 12.5787 11.5428 11.8016 11.2359 11.1166C11.2359 9.47241 10.7209 8.33199 10.4634 7.96731C11.0913 7.79007 12.4973 7.35995 13.0983 7.05729C13.8496 6.67897 14.1565 6.14727 13.9237 6.09615C13.6909 6.04502 12.1354 4.74646 11.9026 3.5706C12.22 2.39473 11.7438 1.12684 11.2359 1.01437C10.728 0.901896 10.0507 1.46427 9.37351 2.19023C8.37459 1.86304 7.33475 2.15615 6.93969 2.34361C6.62576 1.9312 5.80532 1.13298 5.03496 1.23932C4.2646 1.34566 4.43885 2.92643 4.62227 3.70352C4.587 3.82281 4.39159 4.25567 3.89212 5.03276C3.2678 6.00412 2.46358 5.8712 2.46358 6.3211C2.7387 6.81189 4.02969 7.36404 5.81802 8.20248C5.43648 8.7467 4.75081 10.1952 4.63131 11.4029M10.6433 13.4376C10.5333 13.1104 10.1352 13.2127 9.94995 13.3047M10.6433 13.4376C10.7809 13.8466 10.5264 13.9659 9.94995 13.8347M7.01781 13.3047C7.06946 13.4042 7.02031 13.5376 6.93969 13.6608M7.01781 13.3047C7.06604 13.2498 7.15283 13.1827 7.24656 13.1745M6.93969 13.6608C6.96573 13.7739 7.06356 14 7.24656 14C7.37712 14 7.49308 13.8701 7.53316 13.7035M7.24656 13.1745C7.32158 13.168 7.40105 13.1993 7.46878 13.3047C7.4962 13.3474 7.51586 13.3922 7.52875 13.4376M7.24656 13.1745C7.09842 12.7612 6.80213 11.8282 6.80213 11.4029M7.52875 13.4376C7.64632 13.3499 7.92803 13.1745 8.11427 13.1745M7.52875 13.4376C7.55429 13.5277 7.55321 13.6202 7.53316 13.7035M8.11427 13.1745C8.34707 13.1745 8.25184 14 8.11427 14M8.11427 13.1745C8.41656 13.1068 8.64201 13.1808 8.76643 13.3047M8.11427 14C7.97671 14 7.52471 13.7461 7.53316 13.7035M8.11427 14C8.30122 13.9898 8.70686 13.9162 8.83384 13.7035M8.83384 13.7035C8.91 13.5759 8.8812 13.419 8.76643 13.3047M8.83384 13.7035C8.90125 13.7461 9.37351 14 9.46875 14M8.76643 13.3047C8.96879 13.2365 9.39256 13.1207 9.46875 13.2025M8.76643 13.3047C8.76643 12.7485 8.65617 11.6142 8.60104 11.1166M9.46875 13.2025C9.56399 13.3047 9.56399 14 9.46875 14M9.46875 13.2025C9.59629 13.2025 9.80091 13.2269 9.94995 13.3047M9.46875 14C9.59907 13.9806 9.80209 13.9278 9.94995 13.8347M9.94995 13.3047C10.0523 13.3582 10.1285 13.4368 10.1354 13.5501C10.1427 13.6701 10.0622 13.764 9.94995 13.8347M9.94995 13.3047C10.1825 12.8807 10.2975 11.7579 10.3259 11.2495M5.03496 12.9997C4.82242 12.7336 4.65688 12.3936 4.62227 11.9755C4.61301 11.8636 4.61113 11.7474 4.61569 11.6278M5.03496 12.9997C4.71184 13.0696 4.26714 13.1097 3.78964 13.0644M1.16201 11.1166C1.40594 10.7689 2.36453 10.2331 4.24744 10.8712M1.16201 11.1166C1.29847 11.5203 1.49419 11.8465 1.72811 12.1084M1.16201 11.1166C0.973332 10.5584 0.96207 10.0958 1.06343 9.71576M4.63131 11.4029C4.59126 11.3657 4.54172 11.3134 4.48943 11.2495M4.63131 11.4029C4.62379 11.4789 4.61851 11.554 4.61569 11.6278M4.24744 10.8712C4.17557 10.7199 4.12492 10.5515 4.12492 10.3804C4.13106 10.2297 4.13458 10.0902 4.13566 9.96116M4.24744 10.8712C4.3171 11.0178 4.4067 11.1483 4.48943 11.2495M1.72811 12.1084C1.99758 11.771 2.9271 11.1268 4.48943 11.2495M1.72811 12.1084C2.29177 12.7394 3.07722 12.9968 3.78964 13.0644M3.78964 13.0644C3.76297 12.6605 3.89086 11.8078 4.61569 11.6278M1.06343 9.71576C1.6925 9.49423 3.18765 9.23315 4.13566 9.96116M1.06343 9.71576C1.17588 9.29419 1.42692 8.97418 1.72811 8.73787M4.13566 9.96116C4.1383 9.64447 4.12623 9.39007 4.10194 9.18407M1.72811 8.73787C2.38882 8.21948 3.29086 8.10389 3.5006 8.20248C3.78016 8.33389 4.01656 8.46009 4.10194 9.18407M1.72811 8.73787C2.20838 8.68465 3.35552 8.69938 4.10194 9.18407M7.99787 7.58898C8.14341 7.76622 8.50087 8.04911 8.76643 7.76281C9.05606 7.96731 9.19362 7.98776 9.46875 7.58898M5.31009 3.43767C5.12314 2.84122 4.86142 1.68308 5.31009 1.82214C5.75876 1.9612 6.20249 2.42541 6.36827 2.64013L5.31009 3.43767ZM10.3682 2.52766C10.5904 2.21409 11.0708 1.634 11.2148 1.82214C11.3946 2.05731 11.4158 3.2434 11.2148 3.13093C11.0137 3.01845 10.3682 2.66058 10.3682 2.52766ZM3.78964 6.54604C4.55311 7.08796 6.26762 7.97549 7.01781 7.19021C7.95555 6.20862 7.82857 5.8712 8.60104 5.8712C9.21902 5.8712 10.0084 6.66193 10.3259 7.05729C10.5798 7.3095 11.4476 7.56035 12.8867 6.54604C12.0613 6.09615 11.9026 6.18817 11.3735 5.69738C10.8444 5.20658 9.99784 4.72601 9.46875 5.41108C8.76643 5.23726 8.74918 5.23726 7.99787 5.41108C7.52875 5.03276 7.47937 4.91006 6.73864 5.10433C5.99791 5.29861 4.51253 6.54604 3.78964 6.54604ZM6.30478 6.24952C6.32242 6.06547 6.44658 5.69738 6.80213 5.69738C7.15768 5.69738 7.16896 6.06547 7.13016 6.24952C7.12311 6.43698 7.05471 6.67897 6.73864 6.67897C6.36827 6.67897 6.32594 6.34836 6.30478 6.24952ZM10.1354 6.09615C10.1389 5.96322 10.2095 5.69738 10.4634 5.69738C10.8973 5.69738 10.8973 6.09615 10.8973 6.09615C10.8973 6.54604 10.7809 6.67897 10.4634 6.67897C10.1789 6.67897 10.1354 6.24611 10.1354 6.09615ZM8.34707 7.05729C8.32944 6.93118 8.4021 6.67897 8.83384 6.67897C9.26558 6.67897 9.37351 6.93118 9.37351 7.05729C9.31094 7.17317 9.10192 7.40494 8.76643 7.40494C8.43095 7.40494 8.34707 7.17317 8.34707 7.05729Z" stroke="#CED0D6" stroke-width="0.2"/>
</svg>
